# xmcd CD database file
#
# Track frame offsets:
#	150
#	16191
#	32690
#	47212
#	63320
#	76358
#	93377
#	109601
#	122892
#	133345
#	149495
#	168450
#	185838
#
# Disc length: 2529 seconds
#
# Revision: 3
# Processed by: cddbd v1.5.2PL0 Copyright (c) Steve Scherf et al.
# Submitted via: CDex 1.72
#
DISCID=b909df0d
DTITLE=Bonneville, Ray [CDN-Rough Luck-blues) - Rough Luck
DYEAR=1900
DGENRE=Folk/Blues
TTITLE0=What was I to do
TTITLE1=Two bends in the road
TTITLE2=Rough Luck
TTITLE3=I'm not alone
TTITLE4=Sylvie's got a new man
TTITLE5=The last time
TTITLE6=Just before dawn
TTITLE7=Wild thing for you
TTITLE8=Street Singer
TTITLE9=Down on the ground
TTITLE10=Laughing Heart
TTITLE11=Roll with the punches
TTITLE12=Raven Bill
EXTD=Stonefly Records\nSolo, live in the studio recording
EXTT0=
EXTT1=
EXTT2=
EXTT3=
EXTT4=
EXTT5=
EXTT6=
EXTT7=
EXTT8=
EXTT9=
EXTT10=
EXTT11=
EXTT12=
PLAYORDER=
